<?xml version="1.0" encoding="utf-8"?>
<!-- Generator: Adobe Illustrator 22.0.1, SVG Export Plug-In . SVG Version: 6.00 Build 0)  -->
<svg version="1.1" id="Capa_1" xmlns="http://www.w3.org/2000/svg" xmlns:xlink="http://www.w3.org/1999/xlink" x="0px" y="0px"
	 viewBox="0 0 1200 1300" style="enable-background:new 0 0 1200 1300;" xml:space="preserve">
<style type="text/css">
	.st0{fill:none;}
	.st1{font-family:'ArialMT';}
	.st2{font-size:12px;}
	.st3{font-family:'Arial-BoldMT';}
	.st4{font-size:10px;}
	.st5{fill:#3737C8;}
	.st6{fill:#EE0000;}
	.st7{fill:#ECECEC;}
	.st8{fill:#FFFFFF;stroke:#1D1D1B;stroke-miterlimit:10;}
	.st9{fill:#1D1D1B;}
	.st10{fill:none;stroke:#3737C8;stroke-miterlimit:10;}
	.st11{fill:none;stroke:#1D1D1B;stroke-miterlimit:10;}
	.st12{fill:none;stroke:#3737C8;stroke-miterlimit:10;stroke-dasharray:4.8517,4.8517;}
	.st13{fill:none;stroke:#3737C8;stroke-miterlimit:10;stroke-dasharray:5.0159,5.0159;}
	.st14{fill:none;stroke:#3737C8;stroke-miterlimit:10;stroke-dasharray:4.9396,4.9396;}
	.st15{fill:none;stroke:#3737C8;stroke-miterlimit:10;stroke-dasharray:5.0087,5.0087;}
	.st16{fill:none;stroke:#3737C8;stroke-miterlimit:10;stroke-dasharray:4.9246,4.9246;}
</style>
<rect x="18.9" y="635.3" class="st0" width="89.6" height="64.5"/>
<text transform="matrix(1 0 0 1 18.8702 643.8567)" class="st1 st2">BADMINTON</text>
<rect x="18.9" y="25.5" class="st0" width="69.6" height="64.5"/>
<text transform="matrix(1 0 0 1 18.8702 34.1029)" class="st3 st2">DEPORTE</text>
<rect x="147.8" y="25.5" class="st0" width="69.6" height="64.5"/>
<text transform="matrix(1 0 0 1 147.8462 34.1029)" class="st3 st2">TEMAS</text>
<rect x="305.9" y="25.5" class="st0" width="169.6" height="34.5"/>
<text transform="matrix(1 0 0 1 305.8601 34.1029)"><tspan x="0" y="0" class="st3 st2">SUBTEMAS</tspan><tspan x="0" y="12" class="st1 st4">(LA COLUMNA VERTEBRAL)</tspan></text>
<rect x="509.3" y="25.5" class="st0" width="115.6" height="14.5"/>
<text transform="matrix(1 0 0 1 509.3482 34.1029)" class="st5 st3 st2">ARCO NARRATIVO</text>
<rect x="948.6" y="25.5" class="st0" width="202.6" height="44.5"/>
<text transform="matrix(1 0 0 1 948.644 34.1029)"><tspan x="0" y="0" class="st6 st3 st2">ANOTACIONES DEL WIREFRAME</tspan><tspan x="0" y="12" class="st6 st1 st4">(NUMERACIÓN REFIERE A LA COLUMNA </tspan><tspan x="0" y="24" class="st6 st1 st4">VERTEBRAL DE SUBTEMAS)</tspan></text>
<rect x="305.9" y="101.1" class="st0" width="119.6" height="844.5"/>
<text transform="matrix(1 0 0 1 305.8601 109.7109)"><tspan x="0" y="0" class="st1 st2">1.1. POONA EN LA </tspan><tspan x="0" y="14.4" class="st1 st2">INDIA</tspan><tspan x="0" y="72" class="st1 st2">1.2. “SOUVENIR” DE </tspan><tspan x="0" y="86.4" class="st1 st2">BRITÁNICO</tspan><tspan x="0" y="144" class="st1 st2">1.3. EXPORTADO A</tspan><tspan x="0" y="158.4" class="st1 st2">LAS AMÉRICAS</tspan><tspan x="0" y="216" class="st3 st2">1.4. DE VUELTA A </tspan><tspan x="0" y="230.4" class="st3 st2">ASIA</tspan><tspan x="0" y="288" class="st1 st2">1.5. OLIMPICO </tspan><tspan x="0" y="302.4" class="st1 st2">DESDE BARCELONA </tspan><tspan x="0" y="316.8" class="st1 st2">1992</tspan><tspan x="0" y="374.4" class="st1 st2">1.6. MAYORES </tspan><tspan x="0" y="388.8" class="st1 st2">EXPONENTES</tspan><tspan x="0" y="446.4" class="st1 st2">2.1. CANCHA</tspan><tspan x="0" y="504" class="st1 st2">2.2. MALLA</tspan><tspan x="0" y="561.6" class="st1 st2">2.3. VOLANTE</tspan><tspan x="0" y="619.2" class="st3 st2">2.4. RAQUETA</tspan><tspan x="0" y="676.8" class="st3 st2">3.1. RAQUETAZOS</tspan><tspan x="107.3" y="676.8" class="st1 st2"> </tspan><tspan x="0" y="734.4" class="st1 st2">3.2. PUNTOS</tspan><tspan x="0" y="792" class="st1 st2">3.3. SISTEMA DE </tspan><tspan x="0" y="806.4" class="st1 st2">PUNTAJES</tspan></text>
<rect x="147.8" y="630.8" class="st0" width="119.6" height="64.5"/>
<text transform="matrix(1 0 0 1 147.8462 639.3691)"><tspan x="0" y="0" class="st1 st2">2. CANCHA E </tspan><tspan x="0" y="14.4" class="st1 st2">IMPLEMENTOS</tspan></text>
<rect x="147.8" y="832.2" class="st0" width="79.6" height="64.5"/>
<text transform="matrix(1 0 0 1 147.8462 840.7496)"><tspan x="0" y="0" class="st1 st2">3. GOLPES</tspan><tspan x="0" y="14.4" class="st1 st2">Y PUNTOS</tspan></text>
<text transform="matrix(1 0 0 1 509.3482 327.033)" class="st5 st3 st2">¡CLIMAX!</text>
<text transform="matrix(1 0 0 1 509.3669 220.5899)"><tspan x="0" y="0" class="st5 st1 st2">ACCIÓN</tspan><tspan x="0" y="14.4" class="st5 st1 st2">ASCENDENTE</tspan></text>
<text transform="matrix(1 0 0 1 509.3668 403.2912)"><tspan x="0" y="0" class="st5 st1 st2">ACCIÓN</tspan><tspan x="0" y="14.4" class="st5 st1 st2">DESCENDENTE</tspan></text>
<text transform="matrix(1 0 0 1 509.3482 483.6683)" class="st5 st1 st2">DESENLACE</text>
<text transform="matrix(1 0 0 1 509.3482 111.8829)" class="st5 st1 st2">EXPOSICIÓN</text>
<text transform="matrix(1 0 0 1 509.3482 749.4644)" class="st5 st3 st2">¡CLIMAX!</text>
<text transform="matrix(1 0 0 1 509.3668 633.1586)"><tspan x="0" y="0" class="st5 st1 st2">ACCIÓN</tspan><tspan x="0" y="14.4" class="st5 st1 st2">ASCENDENTE</tspan></text>
<text transform="matrix(1 0 0 1 509.3668 841.8906)"><tspan x="0" y="0" class="st5 st1 st2">ACCIÓN</tspan><tspan x="0" y="14.4" class="st5 st1 st2">DESCENDENTE</tspan></text>
<text transform="matrix(1 0 0 1 509.3482 911.3846)" class="st5 st1 st2">DESENLACE</text>
<text transform="matrix(1 0 0 1 509.3482 557.6207)" class="st5 st1 st2">EXPOSICIÓN</text>
<rect x="666.9" y="63.9" class="st7" width="254.5" height="1208.3"/>
<rect x="737.7" y="132.9" class="st8" width="113" height="60.7"/>
<rect x="737.7" y="347.2" class="st8" width="113" height="58.7"/>
<rect x="737.7" y="485.3" class="st8" width="113" height="59.7"/>
<rect x="737.7" y="552.5" class="st8" width="113" height="62.7"/>
<rect x="685.7" y="243.5" class="st8" width="219" height="84.7"/>
<rect x="749.8" y="212.5" class="st9" width="88.9" height="3.3"/>
<rect x="749.8" y="222.5" class="st9" width="88.9" height="3.3"/>
<rect x="749.8" y="441.8" class="st9" width="88.9" height="3.3"/>
<rect x="749.8" y="452.3" class="st9" width="88.9" height="3.3"/>
<rect x="749.8" y="462.9" class="st9" width="88.9" height="3.3"/>
<rect x="749.8" y="421.3" class="st9" width="88.9" height="3.3"/>
<rect x="749.8" y="431.3" class="st9" width="88.9" height="3.3"/>
<rect x="749.8" y="631.9" class="st9" width="88.9" height="3.3"/>
<rect x="688.3" y="1012.3" class="st9" width="56.6" height="3"/>
<rect x="765.9" y="1012.3" class="st9" width="56.6" height="3"/>
<rect x="844.9" y="1012.3" class="st9" width="56.6" height="3"/>
<rect x="749.8" y="641.9" class="st9" width="88.9" height="3.3"/>
<rect x="749.8" y="650.5" class="st9" width="88.9" height="3.3"/>
<rect x="749.8" y="1128.6" class="st9" width="88.9" height="3.3"/>
<rect x="749.8" y="1138.6" class="st9" width="88.9" height="3.3"/>
<rect x="749.8" y="1147.2" class="st9" width="88.9" height="3.3"/>
<rect x="749.8" y="100.9" class="st9" width="88.9" height="3.3"/>
<rect x="749.8" y="110.9" class="st9" width="88.9" height="3.3"/>
<rect x="749.8" y="119.6" class="st9" width="88.9" height="3.3"/>
<rect x="749.8" y="202.4" class="st9" width="88.9" height="3.3"/>
<text transform="matrix(1 0 0 1 948.6445 113.2701)"><tspan x="0" y="0" class="st6 st1 st2">1.1. TEXTO</tspan><tspan x="0" y="43.2" class="st6 st1 st2">1.2. GRÁFICA (BRITÁNICO TOMANDO</tspan><tspan x="0" y="57.6" class="st6 st1 st2">BADMINTÓN DESDE LA INDIA)</tspan><tspan x="0" y="100.8" class="st6 st1 st2">1.3. TEXTO</tspan><tspan x="0" y="158.4" class="st6 st1 st2">1.4. GRÁFICA (MAPA Y LÍNEA </tspan><tspan x="0" y="172.8" class="st6 st1 st2">DE CIRCUNVALACIÓN DE VUELTA</tspan><tspan x="0" y="187.2" class="st6 st1 st2">EN ASIA)</tspan><tspan x="0" y="244.8" class="st6 st1 st2">1.5. GRÁFICA (VIDEO O FOTO</tspan><tspan x="0" y="259.2" class="st6 st1 st2">DE ENTREGA DE MEDALLA DE</tspan><tspan x="0" y="273.6" class="st6 st1 st2">ORO A ALAN BUDIKUSUMA, DE </tspan><tspan x="0" y="288" class="st6 st1 st2">INDONESIA)</tspan><tspan x="0" y="316.8" class="st6 st1 st2">1.6. TEXTO (LISTADO DE MAYORES</tspan><tspan x="0" y="331.2" class="st6 st1 st2">GANADORES CON BANDERITAS,</tspan><tspan x="0" y="345.6" class="st6 st1 st2">INDONESIA, COREA DEL SUR,</tspan><tspan x="0" y="360" class="st6 st1 st2">CHINA, ETC.)</tspan><tspan x="0" y="403.2" class="st6 st1 st2">2.1. GRÁFICA (LA CANCHA)</tspan><tspan x="0" y="460.8" class="st6 st1 st2">2.2. GRÁFICA (ZOOM A LA MALLA</tspan><tspan x="0" y="475.2" class="st6 st1 st2">A LA MITAD DE LA CANCHA)</tspan><tspan x="0" y="576" class="st6 st1 st2">2.3. TEXTO Y GRÁFICA</tspan><tspan x="0" y="590.4" class="st6 st1 st2">(SOBRE EL VOLANTE, QUE ES</tspan><tspan x="0" y="604.8" class="st6 st1 st2">ESA PELOTA CON PLUMAS)</tspan><tspan x="0" y="734.4" class="st6 st1 st2">2.4. GRÁFICA (UNA RAQUETA</tspan><tspan x="0" y="748.8" class="st6 st1 st2">EN DETALLE, CON FORMA,</tspan><tspan x="0" y="763.2" class="st6 st1 st2">TAMAÑO, PESO, EMPUÑADURA,</tspan><tspan x="0" y="777.6" class="st6 st1 st2">ETC.)</tspan><tspan x="0" y="892.8" class="st6 st1 st2">3.1. GRÁFICA CON TEXTO</tspan><tspan x="0" y="907.2" class="st6 st1 st2">(DISTINTOS RAQUETAZOS)</tspan><tspan x="0" y="1036.8" class="st6 st1 st2">3.2. TEXTO SOBRE PUNTOS</tspan><tspan x="0" y="1094.4" class="st6 st1 st2">3.3. TABLA QUE EXPLIQUE</tspan><tspan x="0" y="1108.8" class="st6 st1 st2">EL SISTEMA DE PUNTAJE</tspan></text>
<rect x="737.7" y="665.5" class="st8" width="113" height="106.7"/>
<rect x="737.7" y="1161.9" class="st8" width="113" height="100.7"/>
<rect x="685.7" y="791.1" class="st8" width="220" height="137.7"/>
<rect x="684.7" y="942.4" class="st8" width="64.6" height="64.6"/>
<rect x="761.9" y="942.4" class="st8" width="64.6" height="64.6"/>
<rect x="840.9" y="942.4" class="st8" width="64.6" height="64.6"/>
<rect x="688.3" y="1097" class="st9" width="56.6" height="3"/>
<rect x="765.9" y="1097" class="st9" width="56.6" height="3"/>
<rect x="844.9" y="1097" class="st9" width="56.6" height="3"/>
<rect x="684.7" y="1027.1" class="st8" width="64.6" height="64.6"/>
<rect x="761.9" y="1027.1" class="st8" width="64.6" height="64.6"/>
<rect x="840.9" y="1027.1" class="st8" width="64.6" height="64.6"/>
<line class="st10" x1="502.8" y1="108.2" x2="440.2" y2="108.2"/>
<line class="st10" x1="508.8" y1="323.1" x2="440.2" y2="323.1"/>
<line class="st10" x1="508.8" y1="404.6" x2="440.2" y2="404.6"/>
<line class="st10" x1="508.8" y1="477.9" x2="440.2" y2="477.9"/>
<line class="st10" x1="508.8" y1="552.2" x2="440.2" y2="552.2"/>
<line class="st10" x1="502.8" y1="905.8" x2="440.2" y2="905.8"/>
<line class="st10" x1="502.8" y1="841.9" x2="440.2" y2="841.9"/>
<line class="st10" x1="502.8" y1="221.6" x2="473.2" y2="221.6"/>
<polyline class="st10" points="440.2,145.7 473.2,145.7 473.2,294.1 440.2,294.1 "/>
<line class="st11" x1="260.9" y1="301.4" x2="276.5" y2="301.4"/>
<polyline class="st11" points="293.5,86.2 276.5,86.2 276.5,516.6 293.5,516.6 "/>
<line class="st11" x1="112.2" y1="642.1" x2="127.8" y2="642.1"/>
<polyline class="st11" points="144.8,277.9 127.8,277.9 127.8,878.3 144.8,878.3 "/>
<line class="st11" x1="260.9" y1="640.6" x2="276.5" y2="640.6"/>
<polyline class="st11" points="293.5,529.7 276.5,529.7 276.5,746.1 293.5,746.1 "/>
<line class="st11" x1="260.9" y1="843.9" x2="276.5" y2="843.9"/>
<polyline class="st11" points="293.5,760 276.5,760 276.5,928.4 293.5,928.4 "/>
<line class="st10" x1="502.8" y1="638.3" x2="473.2" y2="638.3"/>
<polyline class="st10" points="440.2,585.4 473.2,585.4 473.2,692.7 440.2,692.7 "/>
<line class="st10" x1="502.8" y1="745.4" x2="473.2" y2="745.4"/>
<polyline class="st10" points="440.2,701.5 473.2,701.5 473.2,800.9 440.2,800.9 "/>
<text transform="matrix(1 0 0 1 147.8462 304.4354)" class="st1 st2">1. ORÍGENES</text>
<g>
	<g>
		<path class="st10" d="M575.9,324.1c0.8-0.1,1.7-0.2,2.5-0.3"/>
		<path class="st12" d="M583.2,323c45.1-8.8,18.8-45.9,89-43.3"/>
		<path class="st10" d="M674.7,279.8c0.8,0,1.7,0.1,2.5,0.1"/>
	</g>
</g>
<g>
	<g>
		<path class="st10" d="M567.9,746.8c0.8,0,1.7,0.1,2.5,0.1"/>
		<path class="st13" d="M575.4,747.4c62.2,8.2,25,89.6,96.9,112.8"/>
		<path class="st10" d="M674.8,860.9c0.8,0.2,1.6,0.5,2.4,0.7"/>
	</g>
</g>
<g>
	<g>
		<polyline class="st10" points="914.3,1109.2 914.3,1111.7 911.8,1111.7 		"/>
		<line class="st14" x1="906.9" y1="1111.7" x2="682.1" y2="1111.7"/>
		<polyline class="st10" points="679.7,1111.7 677.2,1111.7 677.2,1109.2 		"/>
		<line class="st15" x1="677.2" y1="1104.2" x2="677.2" y2="786.1"/>
		<polyline class="st10" points="677.2,783.6 677.2,781.1 679.7,781.1 		"/>
		<line class="st14" x1="684.6" y1="781.1" x2="909.4" y2="781.1"/>
		<polyline class="st10" points="911.8,781.1 914.3,781.1 914.3,783.6 		"/>
		<line class="st15" x1="914.3" y1="788.6" x2="914.3" y2="1106.7"/>
	</g>
</g>
<g>
	<g>
		<polyline class="st10" points="914.3,333.7 914.3,336.2 911.8,336.2 		"/>
		<line class="st14" x1="906.9" y1="336.2" x2="682.1" y2="336.2"/>
		<polyline class="st10" points="679.7,336.2 677.2,336.2 677.2,333.7 		"/>
		<line class="st16" x1="677.2" y1="328.7" x2="677.2" y2="242.5"/>
		<polyline class="st10" points="677.2,240.1 677.2,237.6 679.7,237.6 		"/>
		<line class="st14" x1="684.6" y1="237.6" x2="909.4" y2="237.6"/>
		<polyline class="st10" points="911.8,237.6 914.3,237.6 914.3,240.1 		"/>
		<line class="st16" x1="914.3" y1="245" x2="914.3" y2="331.2"/>
	</g>
</g>
<line class="st11" x1="737.7" y1="132.9" x2="850.7" y2="193.6"/>
<line class="st11" x1="850.7" y1="132.9" x2="737.7" y2="193.6"/>
<line class="st11" x1="685.7" y1="243.5" x2="904.7" y2="328.2"/>
<line class="st11" x1="904.7" y1="243.5" x2="685.7" y2="328.2"/>
<line class="st11" x1="737.7" y1="347.2" x2="850.7" y2="405.9"/>
<line class="st11" x1="850.7" y1="347.2" x2="737.7" y2="405.9"/>
<line class="st11" x1="737.7" y1="485.3" x2="850.7" y2="545"/>
<line class="st11" x1="850.7" y1="485.3" x2="737.7" y2="545"/>
<line class="st11" x1="737.7" y1="552.5" x2="850.7" y2="615.2"/>
<line class="st11" x1="850.7" y1="552.5" x2="737.7" y2="615.2"/>
<line class="st11" x1="737.7" y1="665.5" x2="850.7" y2="772.2"/>
<line class="st11" x1="850.7" y1="665.5" x2="737.7" y2="772.2"/>
<line class="st11" x1="685.7" y1="791.1" x2="905.7" y2="928.8"/>
<line class="st11" x1="905.7" y1="791.1" x2="685.7" y2="928.8"/>
<line class="st11" x1="684.7" y1="942.4" x2="749.4" y2="1007.1"/>
<line class="st11" x1="749.4" y1="942.4" x2="684.7" y2="1007.1"/>
<line class="st11" x1="761.9" y1="942.4" x2="826.5" y2="1007.1"/>
<line class="st11" x1="826.5" y1="942.4" x2="761.9" y2="1007.1"/>
<line class="st11" x1="840.9" y1="942.4" x2="905.6" y2="1007.1"/>
<line class="st11" x1="905.6" y1="942.4" x2="840.9" y2="1007.1"/>
<line class="st11" x1="684.7" y1="1027.1" x2="749.4" y2="1091.8"/>
<line class="st11" x1="749.4" y1="1027.1" x2="684.7" y2="1091.8"/>
<line class="st11" x1="761.9" y1="1027.1" x2="826.5" y2="1091.8"/>
<line class="st11" x1="826.5" y1="1027.1" x2="761.9" y2="1091.8"/>
<line class="st11" x1="840.9" y1="1027.1" x2="905.6" y2="1091.8"/>
<line class="st11" x1="905.6" y1="1027.1" x2="840.9" y2="1091.8"/>
<line class="st11" x1="737.7" y1="1161.9" x2="850.7" y2="1262.6"/>
<line class="st11" x1="850.7" y1="1161.9" x2="737.7" y2="1262.6"/>
<text transform="matrix(1 0 0 1 707.8087 35.8061)" class="st3 st2">STORYBOARD / WIREFRAME</text>
</svg>
