<?xml version="1.0" encoding="utf-8"?>
<!-- Generator: Adobe Illustrator 22.0.1, SVG Export Plug-In . SVG Version: 6.00 Build 0)  -->
<svg version="1.1" id="Capa_1" xmlns="http://www.w3.org/2000/svg" xmlns:xlink="http://www.w3.org/1999/xlink" x="0px" y="0px"
	 viewBox="0 0 1194.1 1309.6" style="enable-background:new 0 0 1194.1 1309.6;" xml:space="preserve">
<style type="text/css">
	.st0{fill:none;}
	.st1{font-family:'ArialMT';}
	.st2{font-size:12px;}
	.st3{font-family:'Arial-BoldMT';}
	.st4{fill:#253787;}
	.st5{fill:#E30613;}
	.st6{fill:#EDEDED;}
	.st7{fill:#FFFFFF;stroke:#000000;stroke-miterlimit:10;}
	.st8{fill:none;stroke:#253787;stroke-miterlimit:10;}
	.st9{fill:none;stroke:#000000;stroke-miterlimit:10;}
	.st10{fill:none;stroke:#253787;stroke-miterlimit:10;stroke-dasharray:5;}
	.st11{fill:none;stroke:#253787;stroke-miterlimit:10;stroke-dasharray:5.0159,5.0159;}
	.st12{fill:none;stroke:#253787;stroke-miterlimit:10;stroke-dasharray:4.9396,4.9396;}
	.st13{fill:none;stroke:#253787;stroke-miterlimit:10;stroke-dasharray:4.9297,4.9297;}
	.st14{fill:none;stroke:#253787;stroke-miterlimit:10;stroke-dasharray:4.9246,4.9246;}
</style>
<rect x="38.9" y="622.3" class="st0" width="89.6" height="64.5"/>
<text transform="matrix(1 0 0 1 38.8702 630.8567)" class="st1 st2">BADMINTON</text>
<rect x="38.9" y="25.5" class="st0" width="69.6" height="64.5"/>
<text transform="matrix(1 0 0 1 38.8702 34.1029)" class="st3 st2">DEPORTE</text>
<rect x="167.8" y="25.5" class="st0" width="69.6" height="64.5"/>
<text transform="matrix(1 0 0 1 167.8462 34.1029)" class="st3 st2">TEMAS</text>
<rect x="325.9" y="25.5" class="st0" width="69.6" height="64.5"/>
<text transform="matrix(1 0 0 1 325.8601 34.1029)" class="st3 st2">SUBTEMAS</text>
<rect x="509.3" y="25.5" class="st0" width="115.6" height="14.5"/>
<text transform="matrix(1 0 0 1 509.3482 34.1029)" class="st4 st3 st2">ARCO NARRATIVO</text>
<rect x="758.8" y="25.5" class="st0" width="109.6" height="14.5"/>
<text transform="matrix(1 0 0 1 758.8362 34.1029)" class="st3 st2">STORYBOARD</text>
<rect x="948.6" y="25.5" class="st0" width="202.6" height="44.5"/>
<text transform="matrix(1 0 0 1 948.644 34.1029)"><tspan x="0" y="0" class="st5 st3 st2">ANOTACIONES</tspan><tspan x="0" y="14.4" class="st5 st1 st2">(LA NUMERACIÓN REFIERE A </tspan><tspan x="0" y="28.8" class="st5 st1 st2">COLUMNA DE SUBTEMAS)</tspan></text>
<rect x="325.9" y="88.1" class="st0" width="119.6" height="844.5"/>
<text transform="matrix(1 0 0 1 325.8601 96.7109)"><tspan x="0" y="0" class="st1 st2">1.1. POONA EN LA </tspan><tspan x="0" y="14.4" class="st1 st2">INDIA</tspan><tspan x="0" y="72" class="st1 st2">1.2. “SOUVENIR” DE </tspan><tspan x="0" y="86.4" class="st1 st2">BRITÁNICO</tspan><tspan x="0" y="144" class="st1 st2">1.3. EXPORTADO A</tspan><tspan x="0" y="158.4" class="st1 st2">LAS AMÉRICAS</tspan><tspan x="0" y="216" class="st1 st2">1.4. DE VUELTA A </tspan><tspan x="0" y="230.4" class="st1 st2">ASIA</tspan><tspan x="0" y="288" class="st1 st2">1.5. OLIMPICO </tspan><tspan x="0" y="302.4" class="st1 st2">DESDE BARCELONA </tspan><tspan x="0" y="316.8" class="st1 st2">1992</tspan><tspan x="0" y="374.4" class="st1 st2">1.6. MAYORES </tspan><tspan x="0" y="388.8" class="st1 st2">EXPONENTES</tspan><tspan x="0" y="446.4" class="st1 st2">2.1. CANCHA</tspan><tspan x="0" y="504" class="st1 st2">2.2. MALLA</tspan><tspan x="0" y="561.6" class="st1 st2">2.3. VOLANTE</tspan><tspan x="0" y="619.2" class="st1 st2">2.4. RAQUETA</tspan><tspan x="0" y="676.8" class="st1 st2">3.1. RAQUETAZOS </tspan><tspan x="0" y="734.4" class="st1 st2">3.2. PUNTOS</tspan><tspan x="0" y="792" class="st1 st2">3.3. SISTEMA DE </tspan><tspan x="0" y="806.4" class="st1 st2">PUNTAJES</tspan></text>
<rect x="167.8" y="622.8" class="st0" width="119.6" height="64.5"/>
<text transform="matrix(1 0 0 1 167.8462 631.3691)" class="st1 st2">2. IMPLEMENTOS</text>
<rect x="167.8" y="819.2" class="st0" width="79.6" height="64.5"/>
<text transform="matrix(1 0 0 1 167.8462 827.7496)"><tspan x="0" y="0" class="st1 st2">3. GOLPES</tspan><tspan x="0" y="14.4" class="st1 st2">Y PUNTOS</tspan></text>
<text transform="matrix(1 0 0 1 509.3482 314.033)" class="st4 st1 st2">¡CLIMAX!</text>
<text transform="matrix(1 0 0 1 509.3668 208.5899)"><tspan x="0" y="0" class="st4 st1 st2">ACCIÓN</tspan><tspan x="0" y="14.4" class="st4 st1 st2">ASCENDENTE</tspan></text>
<text transform="matrix(1 0 0 1 509.3668 383.2912)"><tspan x="0" y="0" class="st4 st1 st2">ACCIÓN</tspan><tspan x="0" y="14.4" class="st4 st1 st2">DESCENDENTE</tspan></text>
<text transform="matrix(1 0 0 1 509.3482 470.6683)" class="st4 st1 st2">DESENLACE</text>
<text transform="matrix(1 0 0 1 509.3482 98.8829)" class="st4 st1 st2">EXPOSICIÓN</text>
<text transform="matrix(1 0 0 1 509.3482 736.4644)" class="st4 st1 st2">¡CLIMAX!</text>
<text transform="matrix(1 0 0 1 509.3668 614.1586)"><tspan x="0" y="0" class="st4 st1 st2">ACCIÓN</tspan><tspan x="0" y="14.4" class="st4 st1 st2">ASCENDENTE</tspan></text>
<text transform="matrix(1 0 0 1 509.3668 828.8906)"><tspan x="0" y="0" class="st4 st1 st2">ACCIÓN</tspan><tspan x="0" y="14.4" class="st4 st1 st2">DESCENDENTE</tspan></text>
<text transform="matrix(1 0 0 1 509.3482 898.3846)" class="st4 st1 st2">DESENLACE</text>
<text transform="matrix(1 0 0 1 509.3482 544.6207)" class="st4 st1 st2">EXPOSICIÓN</text>
<rect x="666.9" y="65.9" class="st6" width="254.5" height="1208.3"/>
<rect x="737.7" y="119.9" class="st7" width="113" height="60.7"/>
<rect x="737.7" y="334.2" class="st7" width="113" height="58.7"/>
<rect x="737.7" y="472.3" class="st7" width="113" height="59.7"/>
<rect x="737.7" y="539.5" class="st7" width="113" height="62.7"/>
<rect x="685.7" y="230.5" class="st7" width="219" height="84.7"/>
<rect x="749.8" y="199.5" width="88.9" height="3.3"/>
<rect x="749.8" y="209.5" width="88.9" height="3.3"/>
<rect x="749.8" y="428.8" width="88.9" height="3.3"/>
<rect x="749.8" y="439.3" width="88.9" height="3.3"/>
<rect x="749.8" y="449.9" width="88.9" height="3.3"/>
<rect x="749.8" y="408.3" width="88.9" height="3.3"/>
<rect x="749.8" y="418.3" width="88.9" height="3.3"/>
<rect x="749.8" y="618.9" width="88.9" height="3.3"/>
<rect x="688.3" y="999.3" width="56.6" height="3"/>
<rect x="765.9" y="999.3" width="56.6" height="3"/>
<rect x="844.9" y="999.3" width="56.6" height="3"/>
<rect x="749.8" y="628.9" width="88.9" height="3.3"/>
<rect x="749.8" y="637.5" width="88.9" height="3.3"/>
<rect x="749.8" y="1115.6" width="88.9" height="3.3"/>
<rect x="749.8" y="1125.6" width="88.9" height="3.3"/>
<rect x="749.8" y="1134.2" width="88.9" height="3.3"/>
<rect x="749.8" y="87.9" width="88.9" height="3.3"/>
<rect x="749.8" y="97.9" width="88.9" height="3.3"/>
<rect x="749.8" y="106.6" width="88.9" height="3.3"/>
<rect x="749.8" y="189.4" width="88.9" height="3.3"/>
<text transform="matrix(1 0 0 1 948.6445 100.2701)"><tspan x="0" y="0" class="st5 st1 st2">1.1. TEXTO</tspan><tspan x="0" y="43.2" class="st5 st1 st2">1.2. GRÁFICA (BRITÁNICO TOMANDO</tspan><tspan x="0" y="57.6" class="st5 st1 st2">BADMINTÓN DESDE LA INDIA)</tspan><tspan x="0" y="100.8" class="st5 st1 st2">1.3. TEXTO</tspan><tspan x="0" y="158.4" class="st5 st1 st2">1.4. GRÁFICA (MAPA Y LÍNEA </tspan><tspan x="0" y="172.8" class="st5 st1 st2">DE CIRCUNVALACIÓN DE VUELTA</tspan><tspan x="0" y="187.2" class="st5 st1 st2">EN ASIA)</tspan><tspan x="0" y="244.8" class="st5 st1 st2">1.5. GRÁFICA (VIDEO O FOTO</tspan><tspan x="0" y="259.2" class="st5 st1 st2">DE ENTREGA DE MEDALLA DE</tspan><tspan x="0" y="273.6" class="st5 st1 st2">ORO A ALAN BUDIKUSUMA, DE </tspan><tspan x="0" y="288" class="st5 st1 st2">INDONESIA)</tspan><tspan x="0" y="316.8" class="st5 st1 st2">1.6. TEXTO (LISTADO DE MAYORES</tspan><tspan x="0" y="331.2" class="st5 st1 st2">GANADORES CON BANDERITAS,</tspan><tspan x="0" y="345.6" class="st5 st1 st2">INDONESIA, COREA DEL SUR,</tspan><tspan x="0" y="360" class="st5 st1 st2">CHINA, ETC.)</tspan><tspan x="0" y="403.2" class="st5 st1 st2">2.1. GRÁFICA (LA CANCHA)</tspan><tspan x="0" y="460.8" class="st5 st1 st2">2.2. GRÁFICA (ZOOM A LA MALLA</tspan><tspan x="0" y="475.2" class="st5 st1 st2">A LA MITAD DE LA CANCHA)</tspan><tspan x="0" y="576" class="st5 st1 st2">2.3. TEXTO Y GRÁFICA</tspan><tspan x="0" y="590.4" class="st5 st1 st2">(SOBRE EL VOLANTE, QUE ES</tspan><tspan x="0" y="604.8" class="st5 st1 st2">ESA PELOTA CON PLUMAS)</tspan><tspan x="0" y="734.4" class="st5 st1 st2">2.4. GRÁFICA (UNA RAQUETA</tspan><tspan x="0" y="748.8" class="st5 st1 st2">EN DETALLE, CON FORMA,</tspan><tspan x="0" y="763.2" class="st5 st1 st2">TAMAÑO, PESO, EMPUÑADURA,</tspan><tspan x="0" y="777.6" class="st5 st1 st2">ETC.)</tspan><tspan x="0" y="892.8" class="st5 st1 st2">3.1. GRÁFICA CON TEXTO</tspan><tspan x="0" y="907.2" class="st5 st1 st2">(DISTINTOS RAQUETAZOS)</tspan><tspan x="0" y="1036.8" class="st5 st1 st2">3.2. TEXTO SOBRE PUNTOS</tspan><tspan x="0" y="1094.4" class="st5 st1 st2">3.3. TABLA QUE EXPLIQUE</tspan><tspan x="0" y="1108.8" class="st5 st1 st2">EL SISTEMA DE PUNTAJE</tspan></text>
<rect x="737.7" y="652.5" class="st7" width="113" height="106.7"/>
<rect x="737.7" y="1148.9" class="st7" width="113" height="100.7"/>
<rect x="685.7" y="793.1" class="st7" width="220" height="122.7"/>
<rect x="684.7" y="929.4" class="st7" width="64.6" height="64.6"/>
<rect x="761.9" y="929.4" class="st7" width="64.6" height="64.6"/>
<rect x="840.9" y="929.4" class="st7" width="64.6" height="64.6"/>
<rect x="688.3" y="1084" width="56.6" height="3"/>
<rect x="765.9" y="1084" width="56.6" height="3"/>
<rect x="844.9" y="1084" width="56.6" height="3"/>
<rect x="684.7" y="1014.1" class="st7" width="64.6" height="64.6"/>
<rect x="761.9" y="1014.1" class="st7" width="64.6" height="64.6"/>
<rect x="840.9" y="1014.1" class="st7" width="64.6" height="64.6"/>
<line class="st8" x1="502.8" y1="95.2" x2="460.2" y2="95.2"/>
<line class="st8" x1="502.8" y1="310.1" x2="460.2" y2="310.1"/>
<line class="st8" x1="502.8" y1="391.6" x2="460.2" y2="391.6"/>
<line class="st8" x1="502.8" y1="464.9" x2="460.2" y2="464.9"/>
<line class="st8" x1="502.8" y1="539.2" x2="460.2" y2="539.2"/>
<line class="st8" x1="502.8" y1="892.8" x2="460.2" y2="892.8"/>
<line class="st8" x1="502.8" y1="828.9" x2="460.2" y2="828.9"/>
<line class="st8" x1="502.8" y1="208.6" x2="487.2" y2="208.6"/>
<polyline class="st8" points="460.2,144.7 487.2,144.7 487.2,273.1 460.2,273.1 "/>
<line class="st9" x1="280.9" y1="288.4" x2="296.5" y2="288.4"/>
<polyline class="st9" points="313.5,73.2 296.5,73.2 296.5,503.6 313.5,503.6 "/>
<line class="st9" x1="132.2" y1="629.1" x2="147.8" y2="629.1"/>
<polyline class="st9" points="164.8,264.9 147.8,264.9 147.8,865.3 164.8,865.3 "/>
<line class="st9" x1="280.9" y1="627.6" x2="296.5" y2="627.6"/>
<polyline class="st9" points="313.5,516.7 296.5,516.7 296.5,733.1 313.5,733.1 "/>
<line class="st9" x1="280.9" y1="830.9" x2="296.5" y2="830.9"/>
<polyline class="st9" points="313.5,747 296.5,747 296.5,915.4 313.5,915.4 "/>
<line class="st8" x1="502.8" y1="625.3" x2="487.2" y2="625.3"/>
<polyline class="st8" points="460.2,572.4 487.2,572.4 487.2,670.7 460.2,670.7 "/>
<line class="st8" x1="502.8" y1="732.4" x2="487.2" y2="732.4"/>
<polyline class="st8" points="460.2,679.5 487.2,679.5 487.2,787.9 460.2,787.9 "/>
<text transform="matrix(1 0 0 1 167.8462 291.4354)" class="st1 st2">1. ORÍGENES</text>
<path class="st10" d="M575.9,311.1c56.4-6.3,21.1-48.9,101.2-44.2"/>
<g>
	<g>
		<path class="st8" d="M567.9,733.8c0.8,0,1.7,0.1,2.5,0.1"/>
		<path class="st11" d="M575.4,734.4c62.2,8.2,25,89.6,96.9,112.8"/>
		<path class="st8" d="M674.8,847.9c0.8,0.2,1.6,0.5,2.4,0.7"/>
	</g>
</g>
<g>
	<g>
		<polyline class="st8" points="914.3,1096.2 914.3,1098.7 911.8,1098.7 		"/>
		<line class="st12" x1="906.9" y1="1098.7" x2="682.1" y2="1098.7"/>
		<polyline class="st8" points="679.7,1098.7 677.2,1098.7 677.2,1096.2 		"/>
		<line class="st13" x1="677.2" y1="1091.3" x2="677.2" y2="788.1"/>
		<polyline class="st8" points="677.2,785.6 677.2,783.1 679.7,783.1 		"/>
		<line class="st12" x1="684.6" y1="783.1" x2="909.4" y2="783.1"/>
		<polyline class="st8" points="911.8,783.1 914.3,783.1 914.3,785.6 		"/>
		<line class="st13" x1="914.3" y1="790.6" x2="914.3" y2="1093.7"/>
	</g>
</g>
<g>
	<g>
		<polyline class="st8" points="914.3,320.7 914.3,323.2 911.8,323.2 		"/>
		<line class="st12" x1="906.9" y1="323.2" x2="682.1" y2="323.2"/>
		<polyline class="st8" points="679.7,323.2 677.2,323.2 677.2,320.7 		"/>
		<line class="st14" x1="677.2" y1="315.7" x2="677.2" y2="229.5"/>
		<polyline class="st8" points="677.2,227.1 677.2,224.6 679.7,224.6 		"/>
		<line class="st12" x1="684.6" y1="224.6" x2="909.4" y2="224.6"/>
		<polyline class="st8" points="911.8,224.6 914.3,224.6 914.3,227.1 		"/>
		<line class="st14" x1="914.3" y1="232" x2="914.3" y2="318.2"/>
	</g>
</g>
<line class="st9" x1="737.7" y1="119.9" x2="850.7" y2="180.6"/>
<line class="st9" x1="850.7" y1="119.9" x2="737.7" y2="180.6"/>
<line class="st9" x1="685.7" y1="230.5" x2="904.7" y2="315.2"/>
<line class="st9" x1="904.7" y1="230.5" x2="685.7" y2="315.2"/>
<line class="st9" x1="737.7" y1="334.2" x2="850.7" y2="392.9"/>
<line class="st9" x1="850.7" y1="334.2" x2="737.7" y2="392.9"/>
<line class="st9" x1="737.7" y1="472.3" x2="850.7" y2="532"/>
<line class="st9" x1="850.7" y1="472.3" x2="737.7" y2="532"/>
<line class="st9" x1="737.7" y1="539.5" x2="850.7" y2="602.2"/>
<line class="st9" x1="850.7" y1="539.5" x2="737.7" y2="602.2"/>
<line class="st9" x1="737.7" y1="652.5" x2="850.7" y2="759.2"/>
<line class="st9" x1="850.7" y1="652.5" x2="737.7" y2="759.2"/>
<line class="st9" x1="685.7" y1="793.1" x2="905.7" y2="915.8"/>
<line class="st9" x1="905.7" y1="793.1" x2="685.7" y2="915.8"/>
<line class="st9" x1="684.7" y1="929.4" x2="749.4" y2="994.1"/>
<line class="st9" x1="749.4" y1="929.4" x2="684.7" y2="994.1"/>
<line class="st9" x1="761.9" y1="929.4" x2="826.5" y2="994.1"/>
<line class="st9" x1="826.5" y1="929.4" x2="761.9" y2="994.1"/>
<line class="st9" x1="840.9" y1="929.4" x2="905.6" y2="994.1"/>
<line class="st9" x1="905.6" y1="929.4" x2="840.9" y2="994.1"/>
<line class="st9" x1="684.7" y1="1014.1" x2="749.4" y2="1078.8"/>
<line class="st9" x1="749.4" y1="1014.1" x2="684.7" y2="1078.8"/>
<line class="st9" x1="761.9" y1="1014.1" x2="826.5" y2="1078.8"/>
<line class="st9" x1="826.5" y1="1014.1" x2="761.9" y2="1078.8"/>
<line class="st9" x1="840.9" y1="1014.1" x2="905.6" y2="1078.8"/>
<line class="st9" x1="905.6" y1="1014.1" x2="840.9" y2="1078.8"/>
<line class="st9" x1="737.7" y1="1148.9" x2="850.7" y2="1249.6"/>
<line class="st9" x1="850.7" y1="1148.9" x2="737.7" y2="1249.6"/>
</svg>
