<?xml version="1.0" encoding="utf-8"?>
<!-- Generator: Adobe Illustrator 22.0.1, SVG Export Plug-In . SVG Version: 6.00 Build 0)  -->
<svg version="1.1" id="Capa_1" xmlns="http://www.w3.org/2000/svg" xmlns:xlink="http://www.w3.org/1999/xlink" x="0px" y="0px"
	 viewBox="0 0 1000 1110" style="enable-background:new 0 0 1000 1110;" xml:space="preserve">
<style type="text/css">
	.st0{fill:none;}
	.st1{font-family:'ArialMT';}
	.st2{font-size:12px;}
	.st3{fill:none;stroke:#BE1622;stroke-miterlimit:10;}
	.st4{fill:none;stroke:#F39200;stroke-miterlimit:10;}
	.st5{fill:none;stroke:#E94E1B;stroke-miterlimit:10;}
	.st6{fill:none;stroke:#FFDE00;stroke-miterlimit:10;}
	.st7{font-size:19px;}
	.st8{stroke:#BE1622;stroke-miterlimit:10;}
	.st9{fill:none;stroke:#000000;stroke-width:1.02;stroke-miterlimit:10;}
	.st10{fill:none;stroke:#000000;stroke-width:1.5772;stroke-miterlimit:10;}
	.st11{fill:none;stroke:#000000;stroke-width:1.4578;stroke-miterlimit:10;}
	.st12{fill:none;stroke:#000000;stroke-miterlimit:10;}
</style>
<rect x="34.3" y="191.8" class="st0" width="133.8" height="71.1"/>
<text transform="matrix(1 0 0 1 34.3624 200.3024)" class="st1 st2">Adiestramineto equino</text>
<rect x="186.9" y="72.9" class="st0" width="50.7" height="23.9"/>
<text transform="matrix(1 0 0 1 186.9843 81.3932)" class="st1 st2">Historia </text>
<text transform="matrix(1 0 0 1 186.9843 81.3932)" class="st3 st1 st2">Historia </text>
<rect x="313" y="54.7" class="st0" width="164.8" height="27.5"/>
<text transform="matrix(1 0 0 1 313.037 63.2464)" class="st1 st2">Origen caballo de batalla en </text>
<text transform="matrix(1 0 0 1 313.037 77.6464)" class="st1 st2">Grecia</text>
<rect x="790.3" y="331.5" class="st0" width="164.8" height="27.5"/>
<text transform="matrix(1 0 0 1 790.3561 340.0481)" class="st1 st2">Ejercicios obligatorios</text>
<rect x="310.5" y="160.5" class="st0" width="164.8" height="27.5"/>
<text transform="matrix(1 0 0 1 310.5517 169.044)" class="st1 st2">Ejercicios obligatorios</text>
<rect x="587.3" y="558" class="st0" width="164.8" height="27.5"/>
<text transform="matrix(1 0 0 1 587.348 566.5355)" class="st1 st2">Cómo se selecciona (razas)</text>
<rect x="587.3" y="570" class="st0" width="164.8" height="13.7"/>
<text transform="matrix(1 0 0 1 587.348 578.5143)" class="st1 st2">Cómo se entrena</text>
<rect x="587.3" y="583.7" class="st0" width="164.8" height="13.7"/>
<text transform="matrix(1 0 0 1 587.348 592.2111)" class="st1 st2">Cuidados</text>
<rect x="299.7" y="225" class="st0" width="164.8" height="27.5"/>
<text transform="matrix(1 0 0 1 299.7799 233.5695)" class="st1 st2">Cómo se selecciona (razas)</text>
<rect x="299.7" y="237" class="st0" width="164.8" height="13.7"/>
<text transform="matrix(1 0 0 1 299.781 245.5484)" class="st1 st2">Cómo se entrena</text>
<rect x="299.7" y="250.7" class="st0" width="164.8" height="13.7"/>
<text transform="matrix(1 0 0 1 299.7809 259.2452)" class="st1 st2">Cuidados</text>
<rect x="299.7" y="315.6" class="st0" width="164.8" height="46.7"/>
<text transform="matrix(1 0 0 1 299.7801 324.1216)" class="st1 st2">Cómo es la versión paraolimpica </text>
<text transform="matrix(1 0 0 1 299.7801 338.5216)" class="st1 st2">deportes equino</text>
<text transform="matrix(1 0 0 1 299.7801 352.9216)" class="st1 st2">(grados)</text>
<rect x="587.3" y="684.7" class="st0" width="164.8" height="46.7"/>
<text transform="matrix(1 0 0 1 587.3478 693.1878)" class="st1 st2">Cómo es la versión paraolimpica </text>
<text transform="matrix(1 0 0 1 587.3478 707.5878)" class="st1 st2">deportes equino</text>
<text transform="matrix(1 0 0 1 587.3478 721.9878)" class="st1 st2">(grados)</text>
<rect x="311" y="84.8" class="st0" width="150" height="41.5"/>
<text transform="matrix(1 0 0 1 312.1251 97.1194)" class="st1 st2">Inicio en las olimpiadas, O,paraamericanas, O paralimpicas</text>
<rect x="180.8" y="158.7" class="st0" width="87.3" height="26.1"/>
<text transform="matrix(1 0 0 1 180.8055 167.1924)" class="st1 st2">Qué se evalúa </text>
<text transform="matrix(1 0 0 1 180.8055 167.1924)" class="st4 st1 st2">Qué se evalúa </text>
<rect x="764.2" y="159.9" class="st0" width="87.3" height="26.1"/>
<text transform="matrix(1 0 0 1 764.2953 168.405)" class="st1 st2">Qué se evalúa </text>
<text transform="matrix(1 0 0 1 764.2953 168.405)" class="st4 st1 st2">Qué se evalúa </text>
<rect x="175.8" y="233.9" class="st0" width="107" height="26.1"/>
<text transform="matrix(1 0 0 1 175.884 242.3775)" class="st1 st2">El deportista equino</text>
<text transform="matrix(1 0 0 1 175.884 242.3775)" class="st5 st1 st2">El deportista equino</text>
<rect x="767.9" y="398.3" class="st0" width="107" height="26.1"/>
<text transform="matrix(1 0 0 1 767.9656 406.7859)" class="st1 st2">El deportista equino</text>
<text transform="matrix(1 0 0 1 767.9656 406.7859)" class="st5 st1 st2">El deportista equino</text>
<rect x="769.6" y="659.4" class="st0" width="203.6" height="30.7"/>
<text transform="matrix(1 0 0 1 769.6631 667.8922)" class="st1 st2">Versión paraolimpica de los deportes </text>
<text transform="matrix(1 0 0 1 769.6631 667.8922)" class="st6 st1 st2">Versión paraolimpica de los deportes </text>
<text transform="matrix(1 0 0 1 769.6631 682.2922)" class="st1 st2">equinos</text>
<text transform="matrix(1 0 0 1 769.6631 682.2922)" class="st6 st1 st2">equinos</text>
<rect x="176.7" y="318.2" class="st0" width="112.9" height="61.5"/>
<text transform="matrix(1 0 0 1 176.7957 326.6878)" class="st1 st2">Versión paraolimpica </text>
<text transform="matrix(1 0 0 1 176.7957 326.6878)" class="st6 st1 st2">Versión paraolimpica </text>
<text transform="matrix(1 0 0 1 176.7957 341.0878)" class="st1 st2">de los deportes equi</text>
<text transform="matrix(1 0 0 1 176.7957 341.0878)" class="st6 st1 st2">de los deportes equi</text>
<text transform="matrix(1 0 0 1 278.3956 341.0878)" class="st1 st2">-</text>
<text transform="matrix(1 0 0 1 278.3956 341.0878)" class="st6 st1 st2">-</text>
<text transform="matrix(1 0 0 1 176.7957 355.4878)" class="st1 st2">nos</text>
<text transform="matrix(1 0 0 1 176.7957 355.4878)" class="st6 st1 st2">nos</text>
<rect x="309.6" y="144" class="st0" width="72.5" height="15.4"/>
<text transform="matrix(1 0 0 1 309.6396 152.5249)" class="st1 st2">Fases</text>
<rect x="780.5" y="211.6" class="st0" width="72.5" height="15.4"/>
<text transform="matrix(1 0 0 1 780.5469 220.1546)" class="st1 st2">Fases</text>
<rect x="311.2" y="126.4" class="st0" width="80.3" height="23.9"/>
<text transform="matrix(1 0 0 1 311.232 134.9147)" class="st1 st2">Cuadrilongo</text>
<rect x="871.4" y="208.6" class="st0" width="80.3" height="23.9"/>
<text transform="matrix(1 0 0 1 871.4822 217.1655)" class="st1 st2">Ilustración </text>
<text transform="matrix(1 0 0 1 871.4822 231.5655)" class="st1 st2">Cuadrilongo</text>
<rect x="303" y="401.7" class="st0" width="109.2" height="50.7"/>
<text transform="matrix(1 0 0 1 303.0705 410.2665)" class="st1 st2">EL hito del salto </text>
<text transform="matrix(1 0 0 1 303.0705 424.6665)" class="st1 st2">chileno</text>
<rect x="790.1" y="938.7" class="st0" width="160" height="50.7"/>
<text transform="matrix(1 0 0 1 790.1033 947.2379)" class="st1 st2">EL hito del salto chileno</text>
<rect x="763.7" y="21.7" class="st0" width="214.1" height="43.7"/>
<text transform="matrix(1 0 0 1 763.7405 35.1924)" class="st1 st7">Adiestramiento equino</text>
<rect x="766.5" y="55.5" class="st0" width="50.7" height="23.9"/>
<text transform="matrix(1 0 0 1 766.5573 64.0205)" class="st1 st2">Historia </text>
<text transform="matrix(1 0 0 1 766.5573 64.0205)" class="st3 st1 st2">Historia </text>
<rect x="757.2" y="183.5" class="st8" width="199.3" height="4.9"/>
<rect x="757.2" y="260" class="st8" width="199.3" height="4.9"/>
<rect x="757.2" y="267.9" class="st8" width="199.3" height="4.9"/>
<rect x="770.4" y="967.1" class="st8" width="199.3" height="4.9"/>
<rect x="770.4" y="976.7" class="st8" width="199.3" height="4.9"/>
<rect x="770.4" y="984.5" class="st8" width="199.3" height="4.9"/>
<rect x="771.1" y="690.1" class="st8" width="199.3" height="4.9"/>
<rect x="771.1" y="699.6" class="st8" width="199.3" height="4.9"/>
<rect x="771.1" y="707.5" class="st8" width="199.3" height="4.9"/>
<rect x="770.7" y="561.6" class="st8" width="199.3" height="4.9"/>
<rect x="770.7" y="571.1" class="st8" width="199.3" height="4.9"/>
<rect x="770.7" y="579" class="st8" width="199.3" height="4.9"/>
<rect x="762.7" y="73.7" class="st8" width="199.3" height="4.9"/>
<rect x="762.7" y="83.2" class="st8" width="199.3" height="4.9"/>
<rect x="762.7" y="91.1" class="st8" width="199.3" height="4.9"/>
<rect x="762.7" y="110.5" class="st9" width="199.3" height="39.8"/>
<rect x="771.1" y="877.1" class="st9" width="199.3" height="39.8"/>
<rect x="770.7" y="599.6" class="st9" width="199.3" height="39.8"/>
<rect x="761.8" y="282.6" class="st10" width="199.3" height="95.1"/>
<rect x="770.4" y="1003.2" class="st11" width="199.3" height="81.3"/>
<rect x="806.6" y="610.3" class="st0" width="157.7" height="23.9"/>
<text transform="matrix(1 0 0 1 806.6609 618.8525)" class="st1 st2">Ilustracion razas</text>
<rect x="784.5" y="418.2" class="st12" width="163.4" height="130"/>
<rect x="802.8" y="441.7" class="st0" width="115.5" height="67.6"/>
<text transform="matrix(1 0 0 1 802.8788 450.1906)" class="st1 st2">Ilustración jinete </text>
<text transform="matrix(1 0 0 1 802.8788 464.5906)" class="st1 st2">equino</text>
<rect x="789.7" y="729.8" class="st12" width="163.4" height="130"/>
<rect x="808.1" y="753.3" class="st0" width="115.5" height="67.6"/>
<text transform="matrix(1 0 0 1 808.102 761.7953)" class="st1 st2">Ilustración jinete </text>
<text transform="matrix(1 0 0 1 808.102 776.1953)" class="st1 st2">equino</text>
<rect x="852.7" y="197.1" class="st12" width="111.3" height="40.8"/>
<rect x="758.1" y="197.1" class="st12" width="85.4" height="44.4"/>
<rect x="821.8" y="887.9" class="st0" width="191.5" height="45.1"/>
<text transform="matrix(1 0 0 1 821.8926 896.4219)" class="st1 st2">Diagrama grados </text>
<rect x="821.5" y="1033.7" class="st0" width="157.7" height="23.9"/>
<text transform="matrix(1 0 0 1 821.5762 1042.2206)" class="st1 st2">Foto?</text>
</svg>
