<?xml version="1.0" encoding="utf-8"?>
<!-- Generator: Adobe Illustrator 26.5.3, SVG Export Plug-In . SVG Version: 6.00 Build 0)  -->
<svg version="1.1" id="Capa_1" xmlns="http://www.w3.org/2000/svg" xmlns:xlink="http://www.w3.org/1999/xlink" x="0px" y="0px"
	 viewBox="0 0 262.7 1160.2" style="enable-background:new 0 0 262.7 1160.2;" xml:space="preserve">
<style type="text/css">
	.st0{fill:none;}
	.st1{font-family:'MyriadPro-Regular';}
	.st2{font-size:12px;}
	.st3{stroke:#F39200;stroke-miterlimit:10;}
	.st4{stroke:#E94E1B;stroke-miterlimit:10;}
	.st5{stroke:#FFDE00;stroke-miterlimit:10;}
	.st6{font-size:19px;}
	.st7{stroke:#BE1622;stroke-miterlimit:10;}
	.st8{fill:none;stroke:#000000;stroke-width:1.02;stroke-miterlimit:10;}
	.st9{fill:none;stroke:#000000;stroke-width:1.5772;stroke-miterlimit:10;}
	.st10{fill:none;stroke:#000000;stroke-width:1.4578;stroke-miterlimit:10;}
	.st11{fill:none;stroke:#000000;stroke-miterlimit:10;}
</style>
<rect x="-776.7" y="197.8" class="st0" width="133.8" height="71.1"/>
<text transform="matrix(1 0 0 1 -776.6854 206.3024)" class="st1 st2">Adiestramineto equino</text>
<rect x="-624.1" y="78.9" class="st0" width="50.7" height="23.9"/>
<text transform="matrix(1 0 0 1 -624.0636 87.3932)" class="st7 st1 st2">Historia </text>
<rect x="-498" y="60.7" class="st0" width="164.8" height="27.5"/>
<text transform="matrix(1 0 0 1 -498.0109 69.2464)"><tspan x="0" y="0" class="st1 st2">Origen caballo de batalla en </tspan><tspan x="0" y="14.4" class="st1 st2">Grecia</tspan></text>
<rect x="59.3" y="337.5" class="st0" width="164.8" height="27.5"/>
<text transform="matrix(1 0 0 1 59.3083 346.0481)" class="st1 st2">Ejercicios obligatorios</text>
<rect x="-500.5" y="166.5" class="st0" width="164.8" height="27.5"/>
<text transform="matrix(1 0 0 1 -500.4962 175.044)" class="st1 st2">Ejercicios obligatorios</text>
<rect x="-111.3" y="564" class="st0" width="164.8" height="27.5"/>
<text transform="matrix(1 0 0 1 -111.2679 572.5355)" class="st1 st2">Cómo se selecciona (razas)</text>
<rect x="-111.3" y="576" class="st0" width="164.8" height="13.7"/>
<text transform="matrix(1 0 0 1 -111.2669 584.5143)" class="st1 st2">Cómo se entrena</text>
<rect x="-111.3" y="589.7" class="st0" width="164.8" height="13.7"/>
<text transform="matrix(1 0 0 1 -111.2669 598.2111)" class="st1 st2">Cuidados</text>
<rect x="-511.3" y="231" class="st0" width="164.8" height="27.5"/>
<text transform="matrix(1 0 0 1 -511.2679 239.5695)" class="st1 st2">Cómo se selecciona (razas)</text>
<rect x="-511.3" y="243" class="st0" width="164.8" height="13.7"/>
<text transform="matrix(1 0 0 1 -511.2668 251.5484)" class="st1 st2">Cómo se entrena</text>
<rect x="-511.3" y="256.7" class="st0" width="164.8" height="13.7"/>
<text transform="matrix(1 0 0 1 -511.2669 265.2452)" class="st1 st2">Cuidados</text>
<rect x="-511.3" y="321.6" class="st0" width="164.8" height="46.7"/>
<text transform="matrix(1 0 0 1 -511.2678 330.1216)"><tspan x="0" y="0" class="st1 st2">Cómo es la versión paraolimpica </tspan><tspan x="0" y="14.4" class="st1 st2">deportes equino</tspan><tspan x="0" y="28.8" class="st1 st2">(grados)</tspan></text>
<rect x="-143.7" y="690.7" class="st0" width="164.8" height="46.7"/>
<text transform="matrix(1 0 0 1 -143.6622 699.1878)"><tspan x="0" y="0" class="st1 st2">Cómo es la versión paraolimpica </tspan><tspan x="0" y="14.4" class="st1 st2">deportes equino</tspan><tspan x="0" y="28.8" class="st1 st2">(grados)</tspan></text>
<rect x="-500" y="90.8" class="st0" width="150" height="41.5"/>
<text transform="matrix(1 0 0 1 -498.9228 103.1194)" class="st1 st2">Inicio en las olimpiadas, O,paraamericanas, O paralimpicas</text>
<rect x="-630.2" y="164.7" class="st0" width="87.3" height="26.1"/>
<text transform="matrix(1 0 0 1 -630.2424 173.1924)" class="st3 st1 st2">Qué se evalúa </text>
<rect x="33.2" y="165.9" class="st0" width="87.3" height="26.1"/>
<text transform="matrix(1 0 0 1 33.2475 174.405)" class="st3 st1 st2">Qué se evalúa </text>
<rect x="-635.2" y="239.9" class="st0" width="107" height="26.1"/>
<text transform="matrix(1 0 0 1 -635.1639 248.3775)" class="st4 st1 st2">El deportista equino</text>
<rect x="36.9" y="404.3" class="st0" width="107" height="26.1"/>
<text transform="matrix(1 0 0 1 36.9177 412.7859)" class="st4 st1 st2">El deportista equino</text>
<rect x="38.6" y="665.4" class="st0" width="203.6" height="30.7"/>
<text transform="matrix(1 0 0 1 38.6152 673.8922)"><tspan x="0" y="0" class="st5 st1 st2">Versión paraolimpica de los deportes </tspan><tspan x="0" y="14.4" class="st5 st1 st2">equinos</tspan></text>
<rect x="-634.3" y="324.2" class="st0" width="112.9" height="61.5"/>
<text transform="matrix(1 0 0 1 -634.2522 332.6878)"><tspan x="0" y="0" class="st5 st1 st2">Versión paraolimpica </tspan><tspan x="0" y="14.4" class="st5 st1 st2">de los deportes equi</tspan><tspan x="101.6" y="14.4" class="st5 st1 st2">-</tspan><tspan x="0" y="28.8" class="st5 st1 st2">nos</tspan></text>
<rect x="-501.4" y="150" class="st0" width="72.5" height="15.4"/>
<text transform="matrix(1 0 0 1 -501.4082 158.5249)" class="st1 st2">Fases</text>
<rect x="49.5" y="217.6" class="st0" width="72.5" height="15.4"/>
<text transform="matrix(1 0 0 1 49.4991 226.1546)" class="st1 st2">Fases</text>
<rect x="-499.8" y="132.4" class="st0" width="80.3" height="23.9"/>
<text transform="matrix(1 0 0 1 -499.8159 140.9147)" class="st1 st2">Cuadrilongo</text>
<rect x="140.4" y="214.6" class="st0" width="80.3" height="23.9"/>
<text transform="matrix(1 0 0 1 140.4343 223.1655)"><tspan x="0" y="0" class="st1 st2">Ilustración </tspan><tspan x="0" y="14.4" class="st1 st2">Cuadrilongo</tspan></text>
<rect x="-508" y="407.7" class="st0" width="109.2" height="50.7"/>
<text transform="matrix(1 0 0 1 -507.9774 416.2665)"><tspan x="0" y="0" class="st1 st2">EL hito del salto </tspan><tspan x="0" y="14.4" class="st1 st2">chileno</tspan></text>
<rect x="59.1" y="944.7" class="st0" width="160" height="50.7"/>
<text transform="matrix(1 0 0 1 59.0555 953.2379)" class="st1 st2">EL hito del salto chileno</text>
<rect x="32.7" y="27.7" class="st0" width="214.1" height="43.7"/>
<text transform="matrix(1 0 0 1 32.6926 41.1924)" class="st1 st6">Adiestramiento equino</text>
<rect x="35.5" y="61.5" class="st0" width="50.7" height="23.9"/>
<text transform="matrix(1 0 0 1 35.5094 70.0205)" class="st7 st1 st2">Historia </text>
<rect x="26.2" y="189.5" class="st7" width="199.3" height="4.9"/>
<rect x="26.2" y="266" class="st7" width="199.3" height="4.9"/>
<rect x="26.2" y="273.9" class="st7" width="199.3" height="4.9"/>
<rect x="39.4" y="973.1" class="st7" width="199.3" height="4.9"/>
<rect x="39.4" y="982.7" class="st7" width="199.3" height="4.9"/>
<rect x="39.4" y="990.5" class="st7" width="199.3" height="4.9"/>
<rect x="40.1" y="696.1" class="st7" width="199.3" height="4.9"/>
<rect x="40.1" y="705.6" class="st7" width="199.3" height="4.9"/>
<rect x="40.1" y="713.5" class="st7" width="199.3" height="4.9"/>
<rect x="39.7" y="567.6" class="st7" width="199.3" height="4.9"/>
<rect x="39.7" y="577.1" class="st7" width="199.3" height="4.9"/>
<rect x="39.7" y="585" class="st7" width="199.3" height="4.9"/>
<rect x="31.7" y="79.7" class="st7" width="199.3" height="4.9"/>
<rect x="31.7" y="89.2" class="st7" width="199.3" height="4.9"/>
<rect x="31.7" y="97.1" class="st7" width="199.3" height="4.9"/>
<rect x="31.7" y="116.5" class="st8" width="199.3" height="39.8"/>
<rect x="40.1" y="883.1" class="st8" width="199.3" height="39.8"/>
<rect x="39.7" y="605.6" class="st8" width="199.3" height="39.8"/>
<rect x="30.8" y="288.6" class="st9" width="199.3" height="95.1"/>
<rect x="39.4" y="1009.2" class="st10" width="199.3" height="81.3"/>
<rect x="75.6" y="616.3" class="st0" width="157.7" height="23.9"/>
<text transform="matrix(1 0 0 1 75.6131 624.8525)" class="st1 st2">Ilustracion razas</text>
<rect x="53.5" y="424.2" class="st11" width="163.4" height="130"/>
<rect x="71.8" y="447.7" class="st0" width="115.5" height="67.6"/>
<text transform="matrix(1 0 0 1 71.8309 456.1906)"><tspan x="0" y="0" class="st1 st2">Ilustración jinete </tspan><tspan x="0" y="14.4" class="st1 st2">equino</tspan></text>
<rect x="58.7" y="735.8" class="st11" width="163.4" height="130"/>
<rect x="77.1" y="759.3" class="st0" width="115.5" height="67.6"/>
<text transform="matrix(1 0 0 1 77.0541 767.7953)"><tspan x="0" y="0" class="st1 st2">Ilustración jinete </tspan><tspan x="0" y="14.4" class="st1 st2">equino</tspan></text>
<rect x="121.7" y="203.1" class="st11" width="111.3" height="40.8"/>
<rect x="27.1" y="203.1" class="st11" width="85.4" height="44.4"/>
<rect x="90.8" y="893.9" class="st0" width="191.5" height="45.1"/>
<text transform="matrix(1 0 0 1 90.8448 902.4219)" class="st1 st2">Diagrama grados </text>
<rect x="90.5" y="1039.7" class="st0" width="157.7" height="23.9"/>
<text transform="matrix(1 0 0 1 90.5283 1048.2206)" class="st1 st2">Foto?</text>
</svg>
