<?xml version="1.0" encoding="utf-8"?>
<!-- Generator: Adobe Illustrator 26.5.0, SVG Export Plug-In . SVG Version: 6.00 Build 0)  -->
<svg version="1.1" id="Capa_1" xmlns="http://www.w3.org/2000/svg" xmlns:xlink="http://www.w3.org/1999/xlink" x="0px" y="0px"
	 viewBox="0 0 1459.92 595.28" style="enable-background:new 0 0 1459.92 595.28;" xml:space="preserve">
<style type="text/css">
	.st0{fill:#DADADA;}
	.st1{fill:none;}
	.st2{font-family:'Roboto-Bold';}
	.st3{font-size:12px;}
	.st4{font-family:'Roboto-Regular';}
	.st5{font-size:11px;}
	.st6{fill:none;stroke:#E30613;stroke-miterlimit:10;}
	.st7{fill:none;stroke:#E30613;stroke-width:2;stroke-miterlimit:10;}
	.st8{fill:none;stroke:#E30613;stroke-width:2.2717;stroke-miterlimit:10;}
	.st9{fill:none;stroke:#000000;stroke-width:0.2084;stroke-miterlimit:10;}
	.st10{fill:none;stroke:#000000;stroke-width:0.25;stroke-miterlimit:10;}
	.st11{fill:none;stroke:#000000;stroke-width:0.3571;stroke-miterlimit:10;}
	.st12{fill:none;stroke:#000000;stroke-width:0.5181;stroke-miterlimit:10;}
	.st13{fill:none;stroke:#000000;stroke-width:0.2712;stroke-miterlimit:10;}
	.st14{fill:none;stroke:#000000;stroke-width:0.2445;stroke-miterlimit:10;}
	.st15{fill:none;stroke:#000000;stroke-width:0.1224;stroke-miterlimit:10;}
	.st16{fill:none;stroke:#E30613;stroke-width:1.1321;stroke-miterlimit:10;}
	.st17{fill:none;stroke:#E30613;stroke-width:0.7329;stroke-miterlimit:10;}
	.st18{fill:none;stroke:#E6007E;stroke-miterlimit:10;}
	.st19{fill:#E6007E;}
	.st20{fill:#E30613;}
	.st21{fill:none;stroke:#000000;stroke-width:0.2366;stroke-miterlimit:10;}
</style>
<rect x="1059.03" y="43.95" class="st0" width="252.26" height="525.3"/>
<rect x="33.79" y="216.4" class="st1" width="42.5" height="21"/>
<text transform="matrix(1 0 0 1 33.7866 225.4044)" class="st2 st3">REMO</text>
<rect x="230.63" y="114.77" class="st1" width="142.77" height="149.98"/>
<text transform="matrix(1 0 0 1 230.6268 123.7661)"><tspan x="0" y="0" class="st4 st3">Inicio del deporte</tspan><tspan x="0" y="28.8" class="st4 st3">Juegos olímpicos</tspan><tspan x="0" y="57.6" class="st4 st3">Juego panamericanos</tspan><tspan x="0" y="86.4" class="st4 st3">Incoporación de la mujer </tspan><tspan x="0" y="100.8" class="st4 st3">en el deporte</tspan></text>
<rect x="104.72" y="166.92" class="st1" width="65.34" height="20.23"/>
<text transform="matrix(1 0 0 1 104.7188 175.9242)" class="st4 st3">Origen</text>
<rect x="106.29" y="471.33" class="st1" width="64.26" height="14.15"/>
<text transform="matrix(1 0 0 1 106.2908 480.3319)" class="st4 st3">Elementos</text>
<rect x="106.29" y="303.62" class="st1" width="71.93" height="20.23"/>
<text transform="matrix(1 0 0 1 106.2913 312.6246)" class="st4 st3">Competencia</text>
<rect x="845.9" y="329.64" class="st1" width="201.39" height="18.87"/>
<text transform="matrix(1 0 0 1 845.8962 338.6442)" class="st4 st3">Músculos que trabaja el remador</text>
<rect x="841.99" y="531.7" class="st1" width="204.58" height="18.87"/>
<text transform="matrix(1 0 0 1 841.9933 540.6967)" class="st4 st3">Medallones. gráfico</text>
<rect x="843.68" y="266.37" class="st1" width="118.72" height="23.87"/>
<text transform="matrix(1 0 0 1 843.6779 275.3713)" class="st4 st3">Competencia </text>
<rect x="844.7" y="443.79" class="st1" width="192.17" height="15.95"/>
<text transform="matrix(1 0 0 1 844.7002 452.7947)" class="st4 st3">Participantes</text>
<rect x="845.02" y="371.48" class="st1" width="189.75" height="23.96"/>
<text transform="matrix(1 0 0 1 845.0153 380.4786)" class="st4 st3">de que trata el recorrido GIF</text>
<rect x="843.09" y="75.27" class="st1" width="156.01" height="23.97"/>
<text transform="matrix(1 0 0 1 843.0936 83.517)"><tspan x="0" y="0" class="st4 st5">Donde se originó y como se </tspan><tspan x="0" y="13.2" class="st4 st5">convirtió deporte olimpico</tspan></text>
<rect x="845.62" y="142.13" class="st1" width="145.13" height="37.73"/>
<text transform="matrix(1 0 0 1 845.6219 150.3782)"><tspan x="0" y="0" class="st4 st5">Imagen de la confederación </tspan><tspan x="0" y="13.2" class="st4 st5">del remo en Chile</tspan></text>
<rect x="845.74" y="352.06" class="st1" width="59.27" height="13.59"/>
<text transform="matrix(1 0 0 1 845.7361 360.3102)" class="st4 st5">Texto</text>
<rect x="845.74" y="400.11" class="st1" width="59.27" height="13.59"/>
<text transform="matrix(1 0 0 1 845.7361 408.3593)" class="st4 st5">reglas</text>
<rect x="843.81" y="206.86" class="st1" width="59.27" height="13.59"/>
<text transform="matrix(1 0 0 1 843.8145 215.1128)" class="st4 st5">Texto</text>
<rect x="231.47" y="445" class="st1" width="152.65" height="67.57"/>
<text transform="matrix(1 0 0 1 231.4739 453.997)"><tspan x="0" y="0" class="st4 st3">Partes de la embarcación</tspan><tspan x="0" y="28.8" class="st4 st3">Tipos de embarcación</tspan><tspan x="0" y="57.6" class="st4 st3">Indumentaria</tspan></text>
<rect x="231.47" y="257.02" class="st1" width="141.92" height="173.86"/>
<text transform="matrix(1 0 0 1 231.4743 266.0179)"><tspan x="0" y="0" class="st4 st3">Medallones</tspan><tspan x="0" y="28.8" class="st4 st3">Recorrido</tspan><tspan x="0" y="57.6" class="st4 st3">Movimientos del deporte</tspan><tspan x="0" y="86.4" class="st4 st3">Participantes</tspan><tspan x="0" y="115.2" class="st4 st3">Reglas</tspan><tspan x="0" y="144" class="st4 st3">Sede panamericano 2023</tspan></text>
<line class="st6" x1="197.53" y1="168.9" x2="208.03" y2="168.9"/>
<line class="st6" x1="208.03" y1="115.31" x2="215.77" y2="115.31"/>
<line class="st6" x1="208.03" y1="228.73" x2="215.77" y2="228.73"/>
<line class="st6" x1="208.03" y1="114.77" x2="208.03" y2="228.73"/>
<rect x="221.57" y="280.09" class="st7" width="115.31" height="23.53"/>
<rect x="223.03" y="310.17" class="st8" width="148.77" height="23.53"/>
<rect x="574.88" y="38.17" class="st0" width="252.26" height="525.3"/>
<rect x="637.26" y="70.03" width="134" height="5.09"/>
<rect x="637.26" y="78.82" width="134" height="5.09"/>
<rect x="637.26" y="88.38" width="134" height="5.09"/>
<rect x="635.89" y="396.62" width="134" height="5.09"/>
<rect x="635.89" y="405.41" width="134" height="5.09"/>
<rect x="633.97" y="202.32" width="134" height="5.09"/>
<rect x="633.97" y="211.11" width="134" height="5.09"/>
<rect x="703.5" y="226.99" width="55.92" height="5.09"/>
<rect x="703.5" y="235.78" width="55.92" height="5.09"/>
<rect x="635.89" y="414.97" width="134" height="5.09"/>
<rect x="630.47" y="305.51" width="134" height="5.09"/>
<g>
	<rect x="625.35" y="106.99" class="st9" width="155.19" height="87.66"/>
	<line class="st9" x1="625.35" y1="106.99" x2="780.54" y2="194.65"/>
	<line class="st9" x1="780.54" y1="111.18" x2="625.35" y2="194.65"/>
</g>
<g>
	<rect x="597.63" y="324.8" class="st10" width="59.29" height="20.5"/>
	<line class="st10" x1="597.63" y1="324.8" x2="656.91" y2="345.3"/>
	<line class="st10" x1="656.91" y1="324.8" x2="597.63" y2="345.3"/>
</g>
<g>
	<rect x="673.29" y="324.8" class="st10" width="59.29" height="20.5"/>
	<line class="st10" x1="673.29" y1="324.8" x2="732.58" y2="345.3"/>
	<line class="st10" x1="732.58" y1="324.8" x2="673.29" y2="345.3"/>
</g>
<g>
	<rect x="637.74" y="223.68" class="st10" width="59.29" height="20.5"/>
	<line class="st10" x1="637.74" y1="223.68" x2="697.03" y2="244.19"/>
	<line class="st10" x1="697.03" y1="223.68" x2="637.74" y2="244.19"/>
</g>
<g>
	<rect x="633.39" y="256.41" class="st11" width="59.29" height="41.84"/>
	<line class="st11" x1="633.39" y1="256.41" x2="692.67" y2="298.25"/>
	<line class="st11" x1="692.67" y1="256.41" x2="633.39" y2="298.25"/>
</g>
<g>
	<rect x="639.68" y="428.3" class="st12" width="124.79" height="41.84"/>
	<line class="st12" x1="639.68" y1="428.3" x2="764.47" y2="470.14"/>
	<line class="st12" x1="764.47" y1="428.3" x2="639.68" y2="470.14"/>
</g>
<g>
	<rect x="700.39" y="255.99" class="st11" width="59.29" height="41.84"/>
	<line class="st11" x1="700.39" y1="255.99" x2="759.68" y2="297.83"/>
	<line class="st11" x1="759.68" y1="255.99" x2="700.39" y2="297.83"/>
</g>
<g>
	<rect x="598.07" y="367.32" class="st13" width="209.65" height="22.24"/>
	<line class="st13" x1="598.07" y1="367.32" x2="807.71" y2="389.56"/>
	<line class="st13" x1="807.71" y1="367.32" x2="598.07" y2="389.56"/>
</g>
<g>
	<rect x="1106.25" y="180.95" class="st14" width="170.43" height="22.24"/>
	<line class="st14" x1="1106.25" y1="180.95" x2="1276.68" y2="203.19"/>
	<line class="st14" x1="1276.68" y1="180.95" x2="1106.25" y2="203.19"/>
</g>
<g>
	<rect x="748.95" y="324.8" class="st10" width="59.29" height="20.5"/>
	<line class="st10" x1="748.95" y1="324.8" x2="808.24" y2="345.3"/>
	<line class="st10" x1="808.24" y1="324.8" x2="748.95" y2="345.3"/>
</g>
<rect x="598.07" y="353.76" width="209.65" height="5.09"/>
<rect x="1121.41" y="75.8" width="134" height="5.09"/>
<rect x="1122.41" y="211.11" width="134" height="5.09"/>
<rect x="1122.41" y="220.37" width="134" height="5.09"/>
<rect x="1122.41" y="229.16" width="134" height="5.09"/>
<rect x="1121.41" y="84.59" width="134" height="5.09"/>
<rect x="1121.41" y="94.15" width="134" height="5.09"/>
<rect x="1143.73" y="156.6" width="83.13" height="5.09"/>
<rect x="1143.73" y="165.39" width="83.13" height="5.09"/>
<g>
	<rect x="1109.5" y="112.76" class="st15" width="159.84" height="29.37"/>
	<line class="st15" x1="1109.5" y1="112.76" x2="1269.34" y2="142.13"/>
	<line class="st15" x1="1269.34" y1="114.16" x2="1109.5" y2="142.13"/>
</g>
<rect x="27.74" y="55.57" class="st1" width="54.6" height="19.28"/>
<text transform="matrix(1 0 0 1 27.7355 64.5747)" class="st2 st3">DEPORTE</text>
<rect x="106.24" y="55.57" class="st1" width="45.73" height="38.56"/>
<text transform="matrix(1 0 0 1 106.2378 64.5747)" class="st2 st3">TEMA</text>
<rect x="228.84" y="55.57" class="st1" width="68.92" height="38.56"/>
<text transform="matrix(1 0 0 1 228.8395 64.5747)" class="st2 st3">SUBTEMA</text>
<rect x="400.6" y="56.49" class="st1" width="68.92" height="21.37"/>
<text transform="matrix(1 0 0 1 400.5962 65.4856)" class="st2 st3">ARCO</text>
<rect x="843.6" y="54.86" class="st1" width="155.5" height="10.69"/>
<text transform="matrix(1 0 0 1 843.6043 63.8604)" class="st2 st3">ANOTACIONES</text>
<rect x="400.64" y="302.15" class="st1" width="48.94" height="15.4"/>
<text transform="matrix(1 0 0 1 400.6371 310.3979)" class="st4 st5">Climax</text>
<rect x="400.64" y="115.31" class="st1" width="69.65" height="106.97"/>
<text transform="matrix(1 0 0 1 400.6371 123.5647)"><tspan x="0" y="0" class="st4 st5">Exposición</tspan><tspan x="0" y="26.4" class="st4 st5">Exposición</tspan><tspan x="0" y="52.8" class="st4 st5">Exposición</tspan><tspan x="0" y="92.4" class="st4 st5">Exposición</tspan></text>
<rect x="399.5" y="368.89" class="st1" width="139.3" height="16.73"/>
<text transform="matrix(1 0 0 1 399.4969 377.1432)" class="st4 st5">Exposición</text>
<rect x="399.5" y="445" class="st1" width="139.3" height="16.73"/>
<text transform="matrix(1 0 0 1 399.4969 453.2466)" class="st4 st5">Exposición</text>
<rect x="399.82" y="472.4" class="st1" width="139.3" height="16.73"/>
<text transform="matrix(1 0 0 1 399.8248 480.6479)" class="st4 st5">Exposición</text>
<rect x="399.5" y="501.02" class="st1" width="139.3" height="16.73"/>
<text transform="matrix(1 0 0 1 399.4969 509.2732)" class="st4 st5">Exposición</text>
<rect x="400.6" y="256.38" class="st1" width="146.93" height="16.73"/>
<text transform="matrix(1 0 0 1 400.5964 264.6322)" class="st4 st5">Acción descendente</text>
<rect x="399.82" y="345.46" class="st1" width="139.3" height="16.73"/>
<text transform="matrix(1 0 0 1 399.8248 353.7102)" class="st4 st5">Acción ascendente</text>
<rect x="399.5" y="399.98" class="st1" width="139.3" height="16.73"/>
<text transform="matrix(1 0 0 1 399.4969 408.2254)" class="st4 st5">Desenlace</text>
<g>
	<line class="st16" x1="195.89" y1="309.54" x2="208.03" y2="309.54"/>
	<line class="st16" x1="208.03" y1="260.76" x2="215.77" y2="260.76"/>
	<line class="st16" x1="208.03" y1="406.12" x2="215.77" y2="406.12"/>
	<line class="st16" x1="208.03" y1="260.06" x2="208.03" y2="406.12"/>
</g>
<line class="st17" x1="197.38" y1="477.67" x2="208.03" y2="477.67"/>
<line class="st17" x1="208.03" y1="448.47" x2="215.77" y2="448.47"/>
<line class="st17" x1="208.03" y1="509.39" x2="215.77" y2="509.39"/>
<line class="st17" x1="208.03" y1="448.17" x2="208.03" y2="509.39"/>
<line class="st17" x1="394.66" y1="306.6" x2="384.01" y2="306.6"/>
<line class="st17" x1="384.01" y1="335.8" x2="376.27" y2="335.8"/>
<line class="st17" x1="384.01" y1="274.87" x2="376.27" y2="274.87"/>
<line class="st17" x1="384.01" y1="336.09" x2="384.01" y2="274.87"/>
<g>
	<g>
		<line class="st18" x1="465.51" y1="310.51" x2="573.5" y2="243.49"/>
		<g>
			<polygon class="st19" points="569.61,238.76 576.01,249.08 577.97,240.72 			"/>
		</g>
	</g>
</g>
<g>
	<g>
		<line class="st18" x1="474.06" y1="315.06" x2="575.9" y2="278.85"/>
		<g>
			<polygon class="st19" points="573.1,273.4 577.17,284.85 580.85,277.09 			"/>
		</g>
	</g>
</g>
<g>
	<g>
		<line class="st6" x1="812.62" y1="83.91" x2="828.19" y2="83.91"/>
		<g>
			<polygon class="st20" points="827.2,87.3 833.07,83.91 827.2,80.52 			"/>
		</g>
	</g>
</g>
<rect x="1330.91" y="113" class="st1" width="108.56" height="29.13"/>
<text transform="matrix(1 0 0 1 1330.9092 122.0011)"><tspan x="0" y="0" class="st4 st3">Embarcaciones </tspan><tspan x="0" y="14.4" class="st4 st3">imagenes</tspan></text>
<g>
	<g>
		<line class="st6" x1="1300.43" y1="121.64" x2="1316.01" y2="121.64"/>
		<g>
			<polygon class="st20" points="1315.02,125.03 1320.89,121.64 1315.02,118.25 			"/>
		</g>
	</g>
</g>
<rect x="1330.91" y="74.6" class="st1" width="118.64" height="37.73"/>
<text transform="matrix(1 0 0 1 1330.9092 82.8507)" class="st4 st5">Texto</text>
<g>
	<g>
		<line class="st6" x1="1300.43" y1="78.15" x2="1316.01" y2="78.15"/>
		<g>
			<polygon class="st20" points="1315.02,81.54 1320.89,78.15 1315.02,74.76 			"/>
		</g>
	</g>
</g>
<rect x="1330.91" y="161" class="st1" width="118.64" height="37.73"/>
<text transform="matrix(1 0 0 1 1330.9092 169.2452)" class="st4 st5">Texto</text>
<g>
	<g>
		<line class="st6" x1="1300.43" y1="164.55" x2="1316.01" y2="164.55"/>
		<g>
			<polygon class="st20" points="1315.02,167.94 1320.89,164.55 1315.02,161.16 			"/>
		</g>
	</g>
</g>
<rect x="1330.91" y="217.49" class="st1" width="118.64" height="37.73"/>
<text transform="matrix(1 0 0 1 1330.9092 225.7377)" class="st4 st5">Texto</text>
<g>
	<g>
		<line class="st6" x1="1300.43" y1="221.04" x2="1316.01" y2="221.04"/>
		<g>
			<polygon class="st20" points="1315.02,224.43 1320.89,221.04 1315.02,217.65 			"/>
		</g>
	</g>
</g>
<rect x="1330.91" y="187.62" class="st1" width="118.64" height="37.73"/>
<text transform="matrix(1 0 0 1 1330.9092 195.8713)"><tspan x="0" y="0" class="st4 st5">Juegos olimpicos </tspan><tspan x="0" y="13.2" class="st4 st5">imagen</tspan></text>
<g>
	<g>
		<line class="st6" x1="1300.43" y1="191.17" x2="1316.01" y2="191.17"/>
		<g>
			<polygon class="st20" points="1315.02,194.56 1320.89,191.17 1315.02,187.78 			"/>
		</g>
	</g>
</g>
<g>
	<rect x="1105.02" y="247.2" class="st14" width="170.43" height="22.24"/>
	<line class="st14" x1="1105.02" y1="247.2" x2="1275.45" y2="269.44"/>
	<line class="st14" x1="1275.45" y1="247.2" x2="1105.02" y2="269.44"/>
</g>
<g>
	<rect x="659.01" y="509.34" class="st21" width="86.13" height="41.22"/>
	<line class="st21" x1="659.01" y1="509.34" x2="745.15" y2="550.56"/>
	<line class="st21" x1="745.15" y1="509.34" x2="659.01" y2="550.56"/>
</g>
<rect x="1121.19" y="277.36" width="134" height="5.09"/>
<rect x="1121.19" y="286.61" width="134" height="5.09"/>
<rect x="1121.19" y="295.4" width="134" height="5.09"/>
<rect x="1329.69" y="283.73" class="st1" width="118.64" height="37.73"/>
<text transform="matrix(1 0 0 1 1329.686 291.9842)" class="st4 st5">Texto</text>
<g>
	<g>
		<line class="st6" x1="1299.21" y1="287.28" x2="1314.79" y2="287.28"/>
		<g>
			<polygon class="st20" points="1313.79,290.68 1319.66,287.28 1313.79,283.89 			"/>
		</g>
	</g>
</g>
<rect x="1329.69" y="253.87" class="st1" width="118.64" height="37.73"/>
<text transform="matrix(1 0 0 1 1329.686 262.1179)"><tspan x="0" y="0" class="st4 st5">Juegos panamericanos </tspan><tspan x="0" y="13.2" class="st4 st5">imagen</tspan></text>
<g>
	<g>
		<line class="st6" x1="1299.21" y1="257.42" x2="1314.79" y2="257.42"/>
		<g>
			<polygon class="st20" points="1313.79,260.81 1319.66,257.42 1313.79,254.03 			"/>
		</g>
	</g>
</g>
<g>
	<g>
		<line class="st6" x1="812.62" y1="150.82" x2="828.19" y2="150.82"/>
		<g>
			<polygon class="st20" points="827.2,154.21 833.07,150.82 827.2,147.43 			"/>
		</g>
	</g>
</g>
<g>
	<g>
		<line class="st6" x1="812.62" y1="211.11" x2="828.19" y2="211.11"/>
		<g>
			<polygon class="st20" points="827.2,214.5 833.07,211.11 827.2,207.72 			"/>
		</g>
	</g>
</g>
<g>
	<g>
		<line class="st6" x1="814.54" y1="335.05" x2="830.11" y2="335.05"/>
		<g>
			<polygon class="st20" points="829.12,338.44 834.99,335.05 829.12,331.66 			"/>
		</g>
	</g>
</g>
<g>
	<g>
		<line class="st6" x1="814.54" y1="355.63" x2="830.11" y2="355.63"/>
		<g>
			<polygon class="st20" points="829.12,359.02 834.99,355.63 829.12,352.24 			"/>
		</g>
	</g>
</g>
<g>
	<g>
		<line class="st6" x1="814.54" y1="376.21" x2="830.11" y2="376.21"/>
		<g>
			<polygon class="st20" points="829.12,379.6 834.99,376.21 829.12,372.82 			"/>
		</g>
	</g>
</g>
<g>
	<g>
		<line class="st6" x1="812.82" y1="404.48" x2="828.4" y2="404.48"/>
		<g>
			<polygon class="st20" points="827.4,407.88 833.28,404.49 827.4,401.09 			"/>
		</g>
	</g>
</g>
<rect x="846.55" y="480.42" class="st1" width="59.27" height="13.59"/>
<text transform="matrix(1 0 0 1 846.5479 488.6689)" class="st4 st5">Texto</text>
<rect x="636.7" y="476.93" width="134" height="5.09"/>
<rect x="636.7" y="485.72" width="134" height="5.09"/>
<rect x="636.7" y="495.28" width="134" height="5.09"/>
<g>
	<g>
		<line class="st6" x1="813.63" y1="484.79" x2="829.21" y2="484.79"/>
		<g>
			<polygon class="st20" points="828.22,488.19 834.09,484.79 828.22,481.4 			"/>
		</g>
	</g>
</g>
<g>
	<g>
		<line class="st6" x1="812.48" y1="270.15" x2="828.06" y2="270.15"/>
		<g>
			<polygon class="st20" points="827.06,273.54 832.94,270.15 827.06,266.76 			"/>
		</g>
	</g>
</g>
<rect x="845.07" y="228.96" class="st1" width="189.75" height="23.96"/>
<text transform="matrix(1 0 0 1 845.0748 237.9637)"><tspan x="0" y="0" class="st4 st3">Primera mujer remera y su mejor </tspan><tspan x="0" y="14.4" class="st4 st3">tiempo en single. foto + texto</tspan></text>
<g>
	<g>
		<line class="st6" x1="813.33" y1="236.35" x2="828.91" y2="236.35"/>
		<g>
			<polygon class="st20" points="827.92,239.75 833.79,236.36 827.92,232.96 			"/>
		</g>
	</g>
</g>
<g>
	<g>
		<line class="st6" x1="814.17" y1="448.06" x2="829.75" y2="448.06"/>
		<g>
			<polygon class="st20" points="828.75,451.45 834.62,448.06 828.75,444.67 			"/>
		</g>
	</g>
</g>
<g>
	<g>
		<line class="st6" x1="814.54" y1="535.49" x2="830.11" y2="535.49"/>
		<g>
			<polygon class="st20" points="829.12,538.88 834.99,535.49 829.12,532.09 			"/>
		</g>
	</g>
</g>
</svg>
